<?xml version="1.0" encoding="UTF-8"?>
<svg xmlns:cc="http://creativecommons.org/ns#" xmlns:dc="http://purl.org/dc/elements/1.1/"
     xmlns:rdf="http://www.w3.org/1999/02/22-rdf-syntax-ns#" width="89.505mm" height="89.505mm" version="1.1"
     viewBox="0 0 317.14 317.14" xmlns="http://www.w3.org/2000/svg">
 <metadata>
  <rdf:RDF>
   <cc:Work rdf:about="">
    <dc:format>image/svg+xml</dc:format>
    <dc:type rdf:resource="http://purl.org/dc/dcmitype/StillImage"/>
    <dc:title/>
   </cc:Work>
  </rdf:RDF>
 </metadata>
 <g transform="translate(980.71 297.09)">
  <circle cx="-822.14" cy="-138.52" r="158.57" color="#000000" color-rendering="auto" fill="#e6e6e6"
          image-rendering="auto" shape-rendering="auto" solid-color="#000000" stroke="#000" stroke-width="2"
          style="isolation:auto;mix-blend-mode:normal"/>
  <g transform="matrix(1.6036 0 0 1.6036 -738.8 -34.594)" fill="#999" stroke="#999" stroke-linecap="square">
   <g transform="translate(-106.33 11.115)">
    <g transform="translate(.062109)">
     <rect x="55.37" y="-83.92" width="9.54" height="6.8505" ry="0"/>
     <rect x="66.201" y="-83.92" width="9.54" height="6.8505" ry="0"/>
     <rect x="77.032" y="-83.92" width="9.54" height="6.8505" ry="0"/>
     <rect x="87.864" y="-83.92" width="9.54" height="6.8505" ry="0"/>
     <rect x="98.695" y="-83.92" width="9.54" height="6.8505" ry="0"/>
     <rect x="109.53" y="-83.92" width="9.54" height="6.8505" ry="0"/>
     <rect x="120.36" y="-83.92" width="9.54" height="6.8505" ry="0"/>
     <rect x="131.19" y="-83.92" width="9.54" height="6.8505" ry="0"/>
    </g>
    <g transform="translate(.062109 8.1433)">
     <rect x="55.37" y="-83.92" width="9.54" height="6.8505" ry="0"/>
     <rect x="66.201" y="-83.92" width="9.54" height="6.8505" ry="0"/>
     <rect x="77.032" y="-83.92" width="9.54" height="6.8505" ry="0"/>
     <rect x="87.864" y="-83.92" width="9.54" height="6.8505" ry="0"/>
     <rect x="98.695" y="-83.92" width="9.54" height="6.8505" ry="0"/>
     <rect x="109.53" y="-83.92" width="9.54" height="6.8505" ry="0"/>
     <rect x="120.36" y="-83.92" width="9.54" height="6.8505" ry="0"/>
     <rect x="131.19" y="-83.92" width="9.54" height="6.8505" ry="0"/>
    </g>
    <g transform="translate(-10.827 16.346)">
     <g transform="translate(.062109)">
      <rect x="55.37" y="-83.92" width="9.54" height="6.8505" ry="0"/>
      <rect x="66.201" y="-83.92" width="9.54" height="6.8505" ry="0"/>
      <rect x="77.032" y="-83.92" width="9.54" height="6.8505" ry="0"/>
      <rect x="87.864" y="-83.92" width="9.54" height="6.8505" ry="0"/>
      <rect x="98.695" y="-83.92" width="9.54" height="6.8505" ry="0"/>
      <rect x="109.53" y="-83.92" width="9.54" height="6.8505" ry="0"/>
      <rect x="120.36" y="-83.92" width="9.54" height="6.8505" ry="0"/>
      <rect x="131.19" y="-83.92" width="9.54" height="6.8505" ry="0"/>
     </g>
     <g transform="translate(.062109 8.1433)">
      <rect x="55.37" y="-83.92" width="9.54" height="6.8505" ry="0"/>
      <rect x="66.201" y="-83.92" width="9.54" height="6.8505" ry="0"/>
      <rect x="77.032" y="-83.92" width="9.54" height="6.8505" ry="0"/>
      <rect x="87.864" y="-83.92" width="9.54" height="6.8505" ry="0"/>
      <rect x="98.695" y="-83.92" width="9.54" height="6.8505" ry="0"/>
      <rect x="109.53" y="-83.92" width="9.54" height="6.8505" ry="0"/>
      <rect x="120.36" y="-83.92" width="9.54" height="6.8505" ry="0"/>
      <rect x="131.19" y="-83.92" width="9.54" height="6.8505" ry="0"/>
     </g>
    </g>
    <g transform="translate(-21.646 32.691)">
     <g transform="translate(.062109)">
      <rect x="55.37" y="-83.92" width="9.54" height="6.8505" ry="0"/>
      <rect x="66.201" y="-83.92" width="9.54" height="6.8505" ry="0"/>
      <rect x="77.032" y="-83.92" width="9.54" height="6.8505" ry="0"/>
      <rect x="87.864" y="-83.92" width="9.54" height="6.8505" ry="0"/>
      <rect x="98.695" y="-83.92" width="9.54" height="6.8505" ry="0"/>
      <rect x="109.53" y="-83.92" width="9.54" height="6.8505" ry="0"/>
      <rect x="120.36" y="-83.92" width="9.54" height="6.8505" ry="0"/>
      <rect x="131.19" y="-83.92" width="9.54" height="6.8505" ry="0"/>
     </g>
     <g transform="translate(.062109 8.1433)">
      <rect x="55.37" y="-83.92" width="9.54" height="6.8505" ry="0"/>
      <rect x="66.201" y="-83.92" width="9.54" height="6.8505" ry="0"/>
      <rect x="77.032" y="-83.92" width="9.54" height="6.8505" ry="0"/>
      <rect x="87.864" y="-83.92" width="9.54" height="6.8505" ry="0"/>
      <rect x="98.695" y="-83.92" width="9.54" height="6.8505" ry="0"/>
      <rect x="109.53" y="-83.92" width="9.54" height="6.8505" ry="0"/>
      <rect x="120.36" y="-83.92" width="9.54" height="6.8505" ry="0"/>
      <rect x="131.19" y="-83.92" width="9.54" height="6.8505" ry="0"/>
     </g>
    </g>
    <g transform="translate(-32.465 49.037)">
     <g transform="translate(.062109)">
      <rect x="55.37" y="-83.92" width="9.54" height="6.8505" ry="0"/>
      <rect x="66.201" y="-83.92" width="9.54" height="6.8505" ry="0"/>
      <rect x="77.032" y="-83.92" width="9.54" height="6.8505" ry="0"/>
      <rect x="87.864" y="-83.92" width="9.54" height="6.8505" ry="0"/>
      <rect x="98.695" y="-83.92" width="9.54" height="6.8505" ry="0"/>
      <rect x="109.53" y="-83.92" width="9.54" height="6.8505" ry="0"/>
      <rect x="120.36" y="-83.92" width="9.54" height="6.8505" ry="0"/>
      <rect x="131.19" y="-83.92" width="9.54" height="6.8505" ry="0"/>
     </g>
     <g transform="translate(.062109 8.1433)">
      <rect x="55.37" y="-83.92" width="9.54" height="6.8505" ry="0"/>
      <rect x="66.201" y="-83.92" width="9.54" height="6.8505" ry="0"/>
      <rect x="77.032" y="-83.92" width="9.54" height="6.8505" ry="0"/>
      <rect x="87.864" y="-83.92" width="9.54" height="6.8505" ry="0"/>
      <rect x="98.695" y="-83.92" width="9.54" height="6.8505" ry="0"/>
      <rect x="109.53" y="-83.92" width="9.54" height="6.8505" ry="0"/>
      <rect x="120.36" y="-83.92" width="9.54" height="6.8505" ry="0"/>
      <rect x="131.19" y="-83.92" width="9.54" height="6.8505" ry="0"/>
     </g>
    </g>
   </g>
   <g transform="translate(-117.22 -4.9706)">
    <g transform="translate(.062109)">
     <rect x="55.37" y="-83.92" width="9.54" height="6.8505" ry="0"/>
     <rect x="66.201" y="-83.92" width="9.54" height="6.8505" ry="0"/>
     <rect x="77.032" y="-83.92" width="9.54" height="6.8505" ry="0"/>
     <rect x="87.864" y="-83.92" width="9.54" height="6.8505" ry="0"/>
     <rect x="98.695" y="-83.92" width="9.54" height="6.8505" ry="0"/>
     <rect x="109.53" y="-83.92" width="9.54" height="6.8505" ry="0"/>
     <rect x="120.36" y="-83.92" width="9.54" height="6.8505" ry="0"/>
     <rect x="131.19" y="-83.92" width="9.54" height="6.8505" ry="0"/>
    </g>
    <g transform="translate(.062109 8.1433)">
     <rect x="55.37" y="-83.92" width="9.54" height="6.8505" ry="0"/>
     <rect x="66.201" y="-83.92" width="9.54" height="6.8505" ry="0"/>
     <rect x="77.032" y="-83.92" width="9.54" height="6.8505" ry="0"/>
     <rect x="87.864" y="-83.92" width="9.54" height="6.8505" ry="0"/>
     <rect x="98.695" y="-83.92" width="9.54" height="6.8505" ry="0"/>
     <rect x="109.53" y="-83.92" width="9.54" height="6.8505" ry="0"/>
     <rect x="120.36" y="-83.92" width="9.54" height="6.8505" ry="0"/>
     <rect x="131.19" y="-83.92" width="9.54" height="6.8505" ry="0"/>
    </g>
    <g transform="translate(-10.827 16.346)">
     <g transform="translate(.062109)">
      <rect x="55.37" y="-83.92" width="9.54" height="6.8505" ry="0"/>
      <rect x="66.201" y="-83.92" width="9.54" height="6.8505" ry="0"/>
      <rect x="77.032" y="-83.92" width="9.54" height="6.8505" ry="0"/>
      <rect x="87.864" y="-83.92" width="9.54" height="6.8505" ry="0"/>
      <rect x="98.695" y="-83.92" width="9.54" height="6.8505" ry="0"/>
      <rect x="109.53" y="-83.92" width="9.54" height="6.8505" ry="0"/>
      <rect x="120.36" y="-83.92" width="9.54" height="6.8505" ry="0"/>
      <rect x="131.19" y="-83.92" width="9.54" height="6.8505" ry="0"/>
     </g>
     <g transform="translate(.062109 8.1433)">
      <rect x="55.37" y="-83.92" width="9.54" height="6.8505" ry="0"/>
      <rect x="66.201" y="-83.92" width="9.54" height="6.8505" ry="0"/>
      <rect x="77.032" y="-83.92" width="9.54" height="6.8505" ry="0"/>
      <rect x="87.864" y="-83.92" width="9.54" height="6.8505" ry="0"/>
      <rect x="98.695" y="-83.92" width="9.54" height="6.8505" ry="0"/>
      <rect x="109.53" y="-83.92" width="9.54" height="6.8505" ry="0"/>
      <rect x="120.36" y="-83.92" width="9.54" height="6.8505" ry="0"/>
      <rect x="131.19" y="-83.92" width="9.54" height="6.8505" ry="0"/>
     </g>
    </g>
    <g transform="translate(-21.646 32.691)">
     <g transform="translate(.062109)">
      <rect x="55.37" y="-83.92" width="9.54" height="6.8505" ry="0"/>
      <rect x="66.201" y="-83.92" width="9.54" height="6.8505" ry="0"/>
      <rect x="77.032" y="-83.92" width="9.54" height="6.8505" ry="0"/>
      <rect x="87.864" y="-83.92" width="9.54" height="6.8505" ry="0"/>
      <rect x="98.695" y="-83.92" width="9.54" height="6.8505" ry="0"/>
      <rect x="109.53" y="-83.92" width="9.54" height="6.8505" ry="0"/>
      <rect x="120.36" y="-83.92" width="9.54" height="6.8505" ry="0"/>
      <rect x="131.19" y="-83.92" width="9.54" height="6.8505" ry="0"/>
     </g>
     <g transform="translate(.062109 8.1433)">
      <rect x="55.37" y="-83.92" width="9.54" height="6.8505" ry="0"/>
      <rect x="66.201" y="-83.92" width="9.54" height="6.8505" ry="0"/>
      <rect x="77.032" y="-83.92" width="9.54" height="6.8505" ry="0"/>
      <rect x="87.864" y="-83.92" width="9.54" height="6.8505" ry="0"/>
      <rect x="98.695" y="-83.92" width="9.54" height="6.8505" ry="0"/>
      <rect x="109.53" y="-83.92" width="9.54" height="6.8505" ry="0"/>
      <rect x="120.36" y="-83.92" width="9.54" height="6.8505" ry="0"/>
      <rect x="131.19" y="-83.92" width="9.54" height="6.8505" ry="0"/>
     </g>
    </g>
    <g transform="translate(-32.465 49.037)">
     <g transform="translate(.062109)">
      <rect x="55.37" y="-83.92" width="9.54" height="6.8505" ry="0"/>
      <rect x="66.201" y="-83.92" width="9.54" height="6.8505" ry="0"/>
      <rect x="77.032" y="-83.92" width="9.54" height="6.8505" ry="0"/>
      <rect x="87.864" y="-83.92" width="9.54" height="6.8505" ry="0"/>
      <rect x="98.695" y="-83.92" width="9.54" height="6.8505" ry="0"/>
      <rect x="109.53" y="-83.92" width="9.54" height="6.8505" ry="0"/>
      <rect x="120.36" y="-83.92" width="9.54" height="6.8505" ry="0"/>
      <rect x="131.19" y="-83.92" width="9.54" height="6.8505" ry="0"/>
     </g>
     <g transform="translate(.062109 8.1433)">
      <rect x="55.37" y="-83.92" width="9.54" height="6.8505" ry="0"/>
      <rect x="66.201" y="-83.92" width="9.54" height="6.8505" ry="0"/>
      <rect x="77.032" y="-83.92" width="9.54" height="6.8505" ry="0"/>
      <rect x="87.864" y="-83.92" width="9.54" height="6.8505" ry="0"/>
      <rect x="98.695" y="-83.92" width="9.54" height="6.8505" ry="0"/>
      <rect x="109.53" y="-83.92" width="9.54" height="6.8505" ry="0"/>
      <rect x="120.36" y="-83.92" width="9.54" height="6.8505" ry="0"/>
      <rect x="131.19" y="-83.92" width="9.54" height="6.8505" ry="0"/>
     </g>
    </g>
   </g>
   <g transform="translate(-139.73 -20.395)">
    <g transform="translate(.062109)">
     <rect x="55.37" y="-83.92" width="9.54" height="6.8505" ry="0"/>
     <rect x="66.201" y="-83.92" width="9.54" height="6.8505" ry="0"/>
     <rect x="77.032" y="-83.92" width="9.54" height="6.8505" ry="0"/>
     <rect x="87.864" y="-83.92" width="9.54" height="6.8505" ry="0"/>
     <rect x="98.695" y="-83.92" width="9.54" height="6.8505" ry="0"/>
     <rect x="109.53" y="-83.92" width="9.54" height="6.8505" ry="0"/>
     <rect x="120.36" y="-83.92" width="9.54" height="6.8505" ry="0"/>
     <rect x="131.19" y="-83.92" width="9.54" height="6.8505" ry="0"/>
    </g>
    <g transform="translate(.062109 8.1433)">
     <rect x="55.37" y="-83.92" width="9.54" height="6.8505" ry="0"/>
     <rect x="66.201" y="-83.92" width="9.54" height="6.8505" ry="0"/>
     <rect x="77.032" y="-83.92" width="9.54" height="6.8505" ry="0"/>
     <rect x="87.864" y="-83.92" width="9.54" height="6.8505" ry="0"/>
     <rect x="98.695" y="-83.92" width="9.54" height="6.8505" ry="0"/>
     <rect x="109.53" y="-83.92" width="9.54" height="6.8505" ry="0"/>
     <rect x="120.36" y="-83.92" width="9.54" height="6.8505" ry="0"/>
     <rect x="131.19" y="-83.92" width="9.54" height="6.8505" ry="0"/>
    </g>
    <g transform="translate(-10.827 16.346)">
     <g transform="translate(.062109)">
      <rect x="55.37" y="-83.92" width="9.54" height="6.8505" ry="0"/>
      <rect x="66.201" y="-83.92" width="9.54" height="6.8505" ry="0"/>
      <rect x="77.032" y="-83.92" width="9.54" height="6.8505" ry="0"/>
      <rect x="87.864" y="-83.92" width="9.54" height="6.8505" ry="0"/>
      <rect x="98.695" y="-83.92" width="9.54" height="6.8505" ry="0"/>
      <rect x="109.53" y="-83.92" width="9.54" height="6.8505" ry="0"/>
      <rect x="120.36" y="-83.92" width="9.54" height="6.8505" ry="0"/>
      <rect x="131.19" y="-83.92" width="9.54" height="6.8505" ry="0"/>
     </g>
     <g transform="translate(.062109 8.1433)">
      <rect x="55.37" y="-83.92" width="9.54" height="6.8505" ry="0"/>
      <rect x="66.201" y="-83.92" width="9.54" height="6.8505" ry="0"/>
      <rect x="77.032" y="-83.92" width="9.54" height="6.8505" ry="0"/>
      <rect x="87.864" y="-83.92" width="9.54" height="6.8505" ry="0"/>
      <rect x="98.695" y="-83.92" width="9.54" height="6.8505" ry="0"/>
      <rect x="109.53" y="-83.92" width="9.54" height="6.8505" ry="0"/>
      <rect x="120.36" y="-83.92" width="9.54" height="6.8505" ry="0"/>
      <rect x="131.19" y="-83.92" width="9.54" height="6.8505" ry="0"/>
     </g>
    </g>
    <g transform="translate(-21.646 32.691)">
     <g transform="translate(.062109)">
      <rect x="55.37" y="-83.92" width="9.54" height="6.8505" ry="0"/>
      <rect x="66.201" y="-83.92" width="9.54" height="6.8505" ry="0"/>
      <rect x="77.032" y="-83.92" width="9.54" height="6.8505" ry="0"/>
      <rect x="87.864" y="-83.92" width="9.54" height="6.8505" ry="0"/>
      <rect x="98.695" y="-83.92" width="9.54" height="6.8505" ry="0"/>
      <rect x="109.53" y="-83.92" width="9.54" height="6.8505" ry="0"/>
      <rect x="120.36" y="-83.92" width="9.54" height="6.8505" ry="0"/>
      <rect x="131.19" y="-83.92" width="9.54" height="6.8505" ry="0"/>
     </g>
     <g transform="translate(.062109 8.1433)">
      <rect x="55.37" y="-83.92" width="9.54" height="6.8505" ry="0"/>
      <rect x="66.201" y="-83.92" width="9.54" height="6.8505" ry="0"/>
      <rect x="77.032" y="-83.92" width="9.54" height="6.8505" ry="0"/>
      <rect x="87.864" y="-83.92" width="9.54" height="6.8505" ry="0"/>
      <rect x="98.695" y="-83.92" width="9.54" height="6.8505" ry="0"/>
      <rect x="109.53" y="-83.92" width="9.54" height="6.8505" ry="0"/>
      <rect x="120.36" y="-83.92" width="9.54" height="6.8505" ry="0"/>
      <rect x="131.19" y="-83.92" width="9.54" height="6.8505" ry="0"/>
     </g>
    </g>
    <g transform="translate(-32.465 49.037)">
     <g transform="translate(.062109)">
      <rect x="55.37" y="-83.92" width="9.54" height="6.8505" ry="0"/>
      <rect x="66.201" y="-83.92" width="9.54" height="6.8505" ry="0"/>
      <rect x="77.032" y="-83.92" width="9.54" height="6.8505" ry="0"/>
      <rect x="87.864" y="-83.92" width="9.54" height="6.8505" ry="0"/>
      <rect x="98.695" y="-83.92" width="9.54" height="6.8505" ry="0"/>
      <rect x="109.53" y="-83.92" width="9.54" height="6.8505" ry="0"/>
      <rect x="120.36" y="-83.92" width="9.54" height="6.8505" ry="0"/>
      <rect x="131.19" y="-83.92" width="9.54" height="6.8505" ry="0"/>
     </g>
     <g transform="translate(.062109 8.1433)">
      <rect x="55.37" y="-83.92" width="9.54" height="6.8505" ry="0"/>
      <rect x="66.201" y="-83.92" width="9.54" height="6.8505" ry="0"/>
      <rect x="77.032" y="-83.92" width="9.54" height="6.8505" ry="0"/>
      <rect x="87.864" y="-83.92" width="9.54" height="6.8505" ry="0"/>
      <rect x="98.695" y="-83.92" width="9.54" height="6.8505" ry="0"/>
      <rect x="109.53" y="-83.92" width="9.54" height="6.8505" ry="0"/>
      <rect x="120.36" y="-83.92" width="9.54" height="6.8505" ry="0"/>
      <rect x="131.19" y="-83.92" width="9.54" height="6.8505" ry="0"/>
     </g>
    </g>
   </g>
   <g transform="translate(-161.37 -36.919)">
    <g transform="translate(.062109)">
     <rect x="55.37" y="-83.92" width="9.54" height="6.8505" ry="0"/>
     <rect x="66.201" y="-83.92" width="9.54" height="6.8505" ry="0"/>
     <rect x="77.032" y="-83.92" width="9.54" height="6.8505" ry="0"/>
     <rect x="87.864" y="-83.92" width="9.54" height="6.8505" ry="0"/>
     <rect x="98.695" y="-83.92" width="9.54" height="6.8505" ry="0"/>
     <rect x="109.53" y="-83.92" width="9.54" height="6.8505" ry="0"/>
     <rect x="120.36" y="-83.92" width="9.54" height="6.8505" ry="0"/>
     <rect x="131.19" y="-83.92" width="9.54" height="6.8505" ry="0"/>
    </g>
    <g transform="translate(.062109 8.1433)">
     <rect x="55.37" y="-83.92" width="9.54" height="6.8505" ry="0"/>
     <rect x="66.201" y="-83.92" width="9.54" height="6.8505" ry="0"/>
     <rect x="77.032" y="-83.92" width="9.54" height="6.8505" ry="0"/>
     <rect x="87.864" y="-83.92" width="9.54" height="6.8505" ry="0"/>
     <rect x="98.695" y="-83.92" width="9.54" height="6.8505" ry="0"/>
     <rect x="109.53" y="-83.92" width="9.54" height="6.8505" ry="0"/>
     <rect x="120.36" y="-83.92" width="9.54" height="6.8505" ry="0"/>
     <rect x="131.19" y="-83.92" width="9.54" height="6.8505" ry="0"/>
    </g>
    <g transform="translate(-10.827 16.346)">
     <g transform="translate(.062109)">
      <rect x="55.37" y="-83.92" width="9.54" height="6.8505" ry="0"/>
      <rect x="66.201" y="-83.92" width="9.54" height="6.8505" ry="0"/>
      <rect x="77.032" y="-83.92" width="9.54" height="6.8505" ry="0"/>
      <rect x="87.864" y="-83.92" width="9.54" height="6.8505" ry="0"/>
      <rect x="98.695" y="-83.92" width="9.54" height="6.8505" ry="0"/>
      <rect x="109.53" y="-83.92" width="9.54" height="6.8505" ry="0"/>
      <rect x="120.36" y="-83.92" width="9.54" height="6.8505" ry="0"/>
      <rect x="131.19" y="-83.92" width="9.54" height="6.8505" ry="0"/>
     </g>
     <g transform="translate(.062109 8.1433)">
      <rect x="55.37" y="-83.92" width="9.54" height="6.8505" ry="0"/>
      <rect x="66.201" y="-83.92" width="9.54" height="6.8505" ry="0"/>
      <rect x="77.032" y="-83.92" width="9.54" height="6.8505" ry="0"/>
      <rect x="87.864" y="-83.92" width="9.54" height="6.8505" ry="0"/>
      <rect x="98.695" y="-83.92" width="9.54" height="6.8505" ry="0"/>
      <rect x="109.53" y="-83.92" width="9.54" height="6.8505" ry="0"/>
      <rect x="120.36" y="-83.92" width="9.54" height="6.8505" ry="0"/>
      <rect x="131.19" y="-83.92" width="9.54" height="6.8505" ry="0"/>
     </g>
    </g>
    <g transform="translate(-21.646 32.691)">
     <g transform="translate(.062109)">
      <rect x="55.37" y="-83.92" width="9.54" height="6.8505" ry="0"/>
      <rect x="66.201" y="-83.92" width="9.54" height="6.8505" ry="0"/>
      <rect x="77.032" y="-83.92" width="9.54" height="6.8505" ry="0"/>
      <rect x="87.864" y="-83.92" width="9.54" height="6.8505" ry="0"/>
      <rect x="98.695" y="-83.92" width="9.54" height="6.8505" ry="0"/>
      <rect x="109.53" y="-83.92" width="9.54" height="6.8505" ry="0"/>
      <rect x="120.36" y="-83.92" width="9.54" height="6.8505" ry="0"/>
      <rect x="131.19" y="-83.92" width="9.54" height="6.8505" ry="0"/>
     </g>
     <g transform="translate(.062109 8.1433)">
      <rect x="55.37" y="-83.92" width="9.54" height="6.8505" ry="0"/>
      <rect x="66.201" y="-83.92" width="9.54" height="6.8505" ry="0"/>
      <rect x="77.032" y="-83.92" width="9.54" height="6.8505" ry="0"/>
      <rect x="87.864" y="-83.92" width="9.54" height="6.8505" ry="0"/>
      <rect x="98.695" y="-83.92" width="9.54" height="6.8505" ry="0"/>
      <rect x="109.53" y="-83.92" width="9.54" height="6.8505" ry="0"/>
      <rect x="120.36" y="-83.92" width="9.54" height="6.8505" ry="0"/>
      <rect x="131.19" y="-83.92" width="9.54" height="6.8505" ry="0"/>
     </g>
    </g>
    <g transform="translate(-32.465 49.037)">
     <g transform="translate(.062109)">
      <rect x="55.37" y="-83.92" width="9.54" height="6.8505" ry="0"/>
      <rect x="66.201" y="-83.92" width="9.54" height="6.8505" ry="0"/>
      <rect x="77.032" y="-83.92" width="9.54" height="6.8505" ry="0"/>
      <rect x="87.864" y="-83.92" width="9.54" height="6.8505" ry="0"/>
      <rect x="98.695" y="-83.92" width="9.54" height="6.8505" ry="0"/>
      <rect x="109.53" y="-83.92" width="9.54" height="6.8505" ry="0"/>
      <rect x="120.36" y="-83.92" width="9.54" height="6.8505" ry="0"/>
      <rect x="131.19" y="-83.92" width="9.54" height="6.8505" ry="0"/>
     </g>
     <g transform="translate(.062109 8.1433)">
      <rect x="55.37" y="-83.92" width="9.54" height="6.8505" ry="0"/>
      <rect x="66.201" y="-83.92" width="9.54" height="6.8505" ry="0"/>
      <rect x="77.032" y="-83.92" width="9.54" height="6.8505" ry="0"/>
      <rect x="87.864" y="-83.92" width="9.54" height="6.8505" ry="0"/>
      <rect x="98.695" y="-83.92" width="9.54" height="6.8505" ry="0"/>
      <rect x="109.53" y="-83.92" width="9.54" height="6.8505" ry="0"/>
      <rect x="120.36" y="-83.92" width="9.54" height="6.8505" ry="0"/>
      <rect x="131.19" y="-83.92" width="9.54" height="6.8505" ry="0"/>
     </g>
    </g>
   </g>
  </g>
  <g id="pencil" transform="matrix(4.8816 0 0 4.8816 -933.67 -261.44)" stroke="#000">
   <polygon points="2 46 4.98 37.99 5 38 10 43 10.01 43.01" fill="#1a1a1a"/>
   <polygon points="10.01 43.01 10 43 5 38 4.98 37.99 8.72 27.97 14.37 33.63 20.02 39.28" fill="#0f0"/>
   <path d="m41.11 18.19-21.11 21.09-5.65-5.65 24.65-24.63 5.6 5.6a5.32 5.32 0 0 1-0.59 0.68l-2.89 2.92z" fill="#ff0"/>
   <path d="M 29.81,6.89 32.74,4 A 5.4,5.4 0 0 1 33.43,3.41 L 39,9 14.37,33.63 8.72,28 Z" fill="#f00"/>
   <path d="m46 10.41a6.84 6.84 0 0 1-1.36 4.16l-5.64-5.57-5.57-5.64c2.85-2.16 7.17-1.72 10 1.16a8.39 8.39 0 0 1 2.57 5.89z"
         fill="#f95"/>
   <g fill="none" stroke-linejoin="round" stroke-width="2">
    <g stroke-linecap="round">
     <polyline points="41.43 17.86 20.02 39.28 8.72 27.97 30.14 6.57"/>
     <path d="m29.81 6.89 2.93-2.89c2.81-2.81 7.62-2.55 10.74 0.57s3.38 7.93 0.57 10.73l-2.93 2.9"/>
     <polyline points="20.02 39.28 2 46 8.72 27.97"/>
     <line x1="5" x2="10" y1="38" y2="43"/>
    </g>
    <line x1="33.43" x2="44.68" y1="3.36" y2="14.61"/>
    <line x1="14.37" x2="39.04" y1="33.63" y2="8.97" stroke-linecap="round"/>
   </g>
  </g>
 </g>
</svg>
