<?xml version="1.0" encoding="UTF-8" standalone="no"?>
<!-- Created with Inkscape (http://www.inkscape.org/) -->

<svg
   xmlns:dc="http://purl.org/dc/elements/1.1/"
   xmlns:cc="http://creativecommons.org/ns#"
   xmlns:rdf="http://www.w3.org/1999/02/22-rdf-syntax-ns#"
   xmlns:svg="http://www.w3.org/2000/svg"
   xmlns="http://www.w3.org/2000/svg"
   xmlns:sodipodi="http://sodipodi.sourceforge.net/DTD/sodipodi-0.dtd"
   xmlns:inkscape="http://www.inkscape.org/namespaces/inkscape"
   id="svg3390"
   version="1.1"
   inkscape:version="0.91+devel r"
   width="269.4032"
   height="81.946716"
   viewBox="0 0 269.4032 81.946716"
   sodipodi:docname="zxpoly_logo.svg">
  <metadata
     id="metadata3396">
    <rdf:RDF>
      <cc:Work
         rdf:about="">
        <dc:format>image/svg+xml</dc:format>
        <dc:type
           rdf:resource="http://purl.org/dc/dcmitype/StillImage" />
        <dc:title></dc:title>
      </cc:Work>
    </rdf:RDF>
  </metadata>
  <defs
     id="defs3394" />
  <sodipodi:namedview
     pagecolor="#ffffff"
     bordercolor="#666666"
     borderopacity="1"
     objecttolerance="10"
     gridtolerance="10"
     guidetolerance="10"
     inkscape:pageopacity="0"
     inkscape:pageshadow="2"
     inkscape:window-width="1600"
     inkscape:window-height="820"
     id="namedview3392"
     showgrid="false"
     fit-margin-top="0"
     fit-margin-left="0"
     fit-margin-right="0"
     fit-margin-bottom="0"
     inkscape:zoom="4.0900799"
     inkscape:cx="190.27195"
     inkscape:cy="47.881565"
     inkscape:window-x="0"
     inkscape:window-y="28"
     inkscape:window-maximized="1"
     inkscape:current-layer="svg3390" />
  <g
     id="g4460"
     transform="translate(-94.048546,-110.44879)"
     inkscape:export-filename="/home/igorm/Pictures/zxpolylogo.png"
     inkscape:export-xdpi="182.75291"
     inkscape:export-ydpi="182.75291">
    <g
       transform="matrix(1,0,0.2700422,1,-40.89037,0)"
       id="g3493">
      <rect
         style="fill:#ff0000;stroke:none"
         id="rect3434"
         width="57.05151"
         height="105.46339"
         x="238.84872"
         y="142.14485"
         transform="matrix(1,0,-0.62948113,0.77701577,0,0)" />
      <rect
         style="fill:#ffff00;stroke:none"
         id="rect3434-0"
         width="57.05151"
         height="105.46339"
         x="295.72739"
         y="142.14485"
         transform="matrix(1,0,-0.62948113,0.77701577,0,0)" />
      <rect
         style="fill:#00ff00;stroke:none"
         id="rect3434-04"
         width="57.05151"
         height="105.46339"
         x="351.19925"
         y="142.14485"
         transform="matrix(1,0,-0.62948113,0.77701577,0,0)" />
      <rect
         style="fill:#00ffff;stroke:none"
         id="rect3434-5"
         width="57.05151"
         height="105.46339"
         x="406.94226"
         y="142.14485"
         transform="matrix(1,0,-0.62948113,0.77701577,0,0)" />
    </g>
    <g
       id="text3499-5"
       style="font-style:normal;font-weight:normal;font-size:35.77396393px;line-height:125%;font-family:Sans;letter-spacing:0px;word-spacing:0px;fill:#ff0000;fill-opacity:1;stroke:#000000;stroke-width:2.0940001;stroke-linecap:square;stroke-linejoin:miter;stroke-miterlimit:4;stroke-dasharray:none;stroke-opacity:1"
       transform="translate(12.735946,2.270903)">
      <path
         id="path4304-4"
         style="font-style:normal;font-variant:normal;font-weight:500;font-stretch:normal;font-family:'Shaston 320';-inkscape-font-specification:'Shaston 320 Medium';fill:#ff0000;stroke:#000000;stroke-width:2.0940001;stroke-linecap:square;stroke-linejoin:miter;stroke-miterlimit:4;stroke-dasharray:none"
         d="m 117.89678,143.29267 0,4.47175 -4.47175,0 0,4.47174 -4.47174,0 0,4.47175 -4.47175,0 0,4.47174 17.88699,0 0,4.47175 -26.830477,0 0,-8.94349 4.471747,0 0,-4.47175 4.47174,0 0,-4.47174 4.47175,0 0,-4.47175 4.47174,0 0,-4.47175 -17.886977,0 0,-4.47174 26.830477,0 0,8.94349 -4.47175,0 z"
         inkscape:connector-curvature="0" />
      <path
         id="path4306-9"
         style="font-style:normal;font-variant:normal;font-weight:500;font-stretch:normal;font-family:'Shaston 320';-inkscape-font-specification:'Shaston 320 Medium';fill:#ff0000;stroke:#000000;stroke-width:2.0940001;stroke-linecap:square;stroke-linejoin:miter;stroke-miterlimit:4;stroke-dasharray:none"
         d="m 153.67074,152.23616 0,4.47175 4.47175,0 0,8.94349 -8.94349,0 0,-8.94349 -8.94349,0 0,8.94349 -8.94349,0 0,-8.94349 4.47174,0 0,-4.47175 4.47175,0 0,-4.47174 -4.47175,0 0,-4.47175 -4.47174,0 0,-8.94349 8.94349,0 0,8.94349 8.94349,0 0,-8.94349 8.94349,0 0,8.94349 -4.47175,0 0,4.47175 -4.47174,0 0,4.47174 4.47174,0 z"
         inkscape:connector-curvature="0" />
      <path
         id="path4308-3"
         style="font-style:normal;font-variant:normal;font-weight:500;font-stretch:normal;font-family:'Shaston 320';-inkscape-font-specification:'Shaston 320 Medium';fill:#ff0000;stroke:#000000;stroke-width:2.0940001;stroke-linecap:square;stroke-linejoin:miter;stroke-miterlimit:4;stroke-dasharray:none"
         d="m 193.91645,147.76442 0,4.47174 -26.83047,0 0,-4.47174 26.83047,0 z"
         inkscape:connector-curvature="0" />
      <path
         id="path4310-3"
         style="font-style:normal;font-variant:normal;font-weight:500;font-stretch:normal;font-family:'Shaston 320';-inkscape-font-specification:'Shaston 320 Medium';fill:#ff0000;stroke:#000000;stroke-width:2.0940001;stroke-linecap:square;stroke-linejoin:miter;stroke-miterlimit:4;stroke-dasharray:none"
         d="m 225.21867,152.23616 -13.41523,0 0,13.41524 -8.9435,0 0,-31.30222 22.35873,0 0,4.47174 4.47175,0 0,8.9435 -4.47175,0 0,4.47174 z m -13.41523,-13.41524 0,8.9435 8.94349,0 0,-8.9435 -8.94349,0 z"
         inkscape:connector-curvature="0" />
      <path
         id="path4312-1"
         style="font-style:normal;font-variant:normal;font-weight:500;font-stretch:normal;font-family:'Shaston 320';-inkscape-font-specification:'Shaston 320 Medium';fill:#ff0000;stroke:#000000;stroke-width:2.0940001;stroke-linecap:square;stroke-linejoin:miter;stroke-miterlimit:4;stroke-dasharray:none"
         d="m 256.52089,161.17965 0,-22.35873 -8.94349,0 0,22.35873 8.94349,0 z m 8.94349,-22.35873 0,22.35873 -4.47174,0 0,4.47175 -17.88699,0 0,-4.47175 -4.47174,0 0,-22.35873 4.47174,0 0,-4.47174 17.88699,0 0,4.47174 4.47174,0 z"
         inkscape:connector-curvature="0" />
      <path
         id="path4314-0"
         style="font-style:normal;font-variant:normal;font-weight:500;font-stretch:normal;font-family:'Shaston 320';-inkscape-font-specification:'Shaston 320 Medium';fill:#ff0000;stroke:#000000;stroke-width:2.0940001;stroke-linecap:square;stroke-linejoin:miter;stroke-miterlimit:4;stroke-dasharray:none"
         d="m 301.23834,165.6514 -26.83048,0 0,-31.30222 8.9435,0 0,26.83047 17.88698,0 0,4.47175 z"
         inkscape:connector-curvature="0" />
      <path
         id="path4316-8"
         style="font-style:normal;font-variant:normal;font-weight:500;font-stretch:normal;font-family:'Shaston 320';-inkscape-font-specification:'Shaston 320 Medium';fill:#ff0000;stroke:#000000;stroke-width:2.0940001;stroke-linecap:square;stroke-linejoin:miter;stroke-miterlimit:4;stroke-dasharray:none"
         d="m 332.54056,152.23616 -4.47174,0 0,13.41524 -8.94349,0 0,-13.41524 -4.47175,0 0,-4.47174 -4.47174,0 0,-13.41524 8.94349,0 0,13.41524 8.94349,0 0,-13.41524 8.94349,0 0,13.41524 -4.47175,0 0,4.47174 z"
         inkscape:connector-curvature="0" />
    </g>
    <g
       transform="translate(11.166971,-1.5979279)"
       id="text3499"
       style="font-style:normal;font-weight:normal;font-size:35.77396393px;line-height:125%;font-family:Sans;letter-spacing:0px;word-spacing:0px;fill:#ffff00;fill-opacity:1;stroke:#000000;stroke-width:2.0940001;stroke-linecap:square;stroke-linejoin:miter;stroke-miterlimit:4;stroke-dasharray:none;stroke-opacity:1">
      <path
         inkscape:connector-curvature="0"
         id="path4304"
         style="font-style:normal;font-variant:normal;font-weight:500;font-stretch:normal;font-family:'Shaston 320';-inkscape-font-specification:'Shaston 320 Medium';fill:#ffff00;stroke:#000000;stroke-width:2.0940001;stroke-linecap:square;stroke-linejoin:miter;stroke-miterlimit:4;stroke-dasharray:none"
         d="m 117.89678,143.29267 0,4.47175 -4.47175,0 0,4.47174 -4.47174,0 0,4.47175 -4.47175,0 0,4.47174 17.88699,0 0,4.47175 -26.830477,0 0,-8.94349 4.471747,0 0,-4.47175 4.47174,0 0,-4.47174 4.47175,0 0,-4.47175 4.47174,0 0,-4.47175 -17.886977,0 0,-4.47174 26.830477,0 0,8.94349 -4.47175,0 z" />
      <path
         inkscape:connector-curvature="0"
         id="path4306"
         style="font-style:normal;font-variant:normal;font-weight:500;font-stretch:normal;font-family:'Shaston 320';-inkscape-font-specification:'Shaston 320 Medium';fill:#ffff00;stroke:#000000;stroke-width:2.0940001;stroke-linecap:square;stroke-linejoin:miter;stroke-miterlimit:4;stroke-dasharray:none"
         d="m 153.67074,152.23616 0,4.47175 4.47175,0 0,8.94349 -8.94349,0 0,-8.94349 -8.94349,0 0,8.94349 -8.94349,0 0,-8.94349 4.47174,0 0,-4.47175 4.47175,0 0,-4.47174 -4.47175,0 0,-4.47175 -4.47174,0 0,-8.94349 8.94349,0 0,8.94349 8.94349,0 0,-8.94349 8.94349,0 0,8.94349 -4.47175,0 0,4.47175 -4.47174,0 0,4.47174 4.47174,0 z" />
      <path
         inkscape:connector-curvature="0"
         id="path4308"
         style="font-style:normal;font-variant:normal;font-weight:500;font-stretch:normal;font-family:'Shaston 320';-inkscape-font-specification:'Shaston 320 Medium';fill:#ffff00;stroke:#000000;stroke-width:2.0940001;stroke-linecap:square;stroke-linejoin:miter;stroke-miterlimit:4;stroke-dasharray:none"
         d="m 193.91645,147.76442 0,4.47174 -26.83047,0 0,-4.47174 26.83047,0 z" />
      <path
         inkscape:connector-curvature="0"
         id="path4310"
         style="font-style:normal;font-variant:normal;font-weight:500;font-stretch:normal;font-family:'Shaston 320';-inkscape-font-specification:'Shaston 320 Medium';fill:#ffff00;stroke:#000000;stroke-width:2.0940001;stroke-linecap:square;stroke-linejoin:miter;stroke-miterlimit:4;stroke-dasharray:none"
         d="m 225.21867,152.23616 -13.41523,0 0,13.41524 -8.9435,0 0,-31.30222 22.35873,0 0,4.47174 4.47175,0 0,8.9435 -4.47175,0 0,4.47174 z m -13.41523,-13.41524 0,8.9435 8.94349,0 0,-8.9435 -8.94349,0 z" />
      <path
         inkscape:connector-curvature="0"
         id="path4312"
         style="font-style:normal;font-variant:normal;font-weight:500;font-stretch:normal;font-family:'Shaston 320';-inkscape-font-specification:'Shaston 320 Medium';fill:#ffff00;stroke:#000000;stroke-width:2.0940001;stroke-linecap:square;stroke-linejoin:miter;stroke-miterlimit:4;stroke-dasharray:none"
         d="m 256.52089,161.17965 0,-22.35873 -8.94349,0 0,22.35873 8.94349,0 z m 8.94349,-22.35873 0,22.35873 -4.47174,0 0,4.47175 -17.88699,0 0,-4.47175 -4.47174,0 0,-22.35873 4.47174,0 0,-4.47174 17.88699,0 0,4.47174 4.47174,0 z" />
      <path
         inkscape:connector-curvature="0"
         id="path4314"
         style="font-style:normal;font-variant:normal;font-weight:500;font-stretch:normal;font-family:'Shaston 320';-inkscape-font-specification:'Shaston 320 Medium';fill:#ffff00;stroke:#000000;stroke-width:2.0940001;stroke-linecap:square;stroke-linejoin:miter;stroke-miterlimit:4;stroke-dasharray:none"
         d="m 301.23834,165.6514 -26.83048,0 0,-31.30222 8.9435,0 0,26.83047 17.88698,0 0,4.47175 z" />
      <path
         inkscape:connector-curvature="0"
         id="path4316"
         style="font-style:normal;font-variant:normal;font-weight:500;font-stretch:normal;font-family:'Shaston 320';-inkscape-font-specification:'Shaston 320 Medium';fill:#ffff00;stroke:#000000;stroke-width:2.0940001;stroke-linecap:square;stroke-linejoin:miter;stroke-miterlimit:4;stroke-dasharray:none"
         d="m 332.54056,152.23616 -4.47174,0 0,13.41524 -8.94349,0 0,-13.41524 -4.47175,0 0,-4.47174 -4.47174,0 0,-13.41524 8.94349,0 0,13.41524 8.94349,0 0,-13.41524 8.94349,0 0,13.41524 -4.47175,0 0,4.47174 z" />
    </g>
    <g
       transform="translate(9.3376129,-5.2341523)"
       id="text3499-4"
       style="font-style:normal;font-weight:normal;font-size:35.77396393px;line-height:125%;font-family:Sans;letter-spacing:0px;word-spacing:0px;fill:#00ff00;fill-opacity:1;stroke:#000000;stroke-width:2.0940001;stroke-linecap:square;stroke-linejoin:miter;stroke-miterlimit:4;stroke-dasharray:none;stroke-opacity:1">
      <path
         inkscape:connector-curvature="0"
         id="path4304-7"
         style="font-style:normal;font-variant:normal;font-weight:500;font-stretch:normal;font-family:'Shaston 320';-inkscape-font-specification:'Shaston 320 Medium';fill:#00ff00;stroke:#000000;stroke-width:2.0940001;stroke-linecap:square;stroke-linejoin:miter;stroke-miterlimit:4;stroke-dasharray:none"
         d="m 117.89678,143.29267 0,4.47175 -4.47175,0 0,4.47174 -4.47174,0 0,4.47175 -4.47175,0 0,4.47174 17.88699,0 0,4.47175 -26.830477,0 0,-8.94349 4.471747,0 0,-4.47175 4.47174,0 0,-4.47174 4.47175,0 0,-4.47175 4.47174,0 0,-4.47175 -17.886977,0 0,-4.47174 26.830477,0 0,8.94349 -4.47175,0 z" />
      <path
         inkscape:connector-curvature="0"
         id="path4306-4"
         style="font-style:normal;font-variant:normal;font-weight:500;font-stretch:normal;font-family:'Shaston 320';-inkscape-font-specification:'Shaston 320 Medium';fill:#00ff00;stroke:#000000;stroke-width:2.0940001;stroke-linecap:square;stroke-linejoin:miter;stroke-miterlimit:4;stroke-dasharray:none"
         d="m 153.67074,152.23616 0,4.47175 4.47175,0 0,8.94349 -8.94349,0 0,-8.94349 -8.94349,0 0,8.94349 -8.94349,0 0,-8.94349 4.47174,0 0,-4.47175 4.47175,0 0,-4.47174 -4.47175,0 0,-4.47175 -4.47174,0 0,-8.94349 8.94349,0 0,8.94349 8.94349,0 0,-8.94349 8.94349,0 0,8.94349 -4.47175,0 0,4.47175 -4.47174,0 0,4.47174 4.47174,0 z" />
      <path
         inkscape:connector-curvature="0"
         id="path4308-0"
         style="font-style:normal;font-variant:normal;font-weight:500;font-stretch:normal;font-family:'Shaston 320';-inkscape-font-specification:'Shaston 320 Medium';fill:#00ff00;stroke:#000000;stroke-width:2.0940001;stroke-linecap:square;stroke-linejoin:miter;stroke-miterlimit:4;stroke-dasharray:none"
         d="m 193.91645,147.76442 0,4.47174 -26.83047,0 0,-4.47174 26.83047,0 z" />
      <path
         inkscape:connector-curvature="0"
         id="path4310-2"
         style="font-style:normal;font-variant:normal;font-weight:500;font-stretch:normal;font-family:'Shaston 320';-inkscape-font-specification:'Shaston 320 Medium';fill:#00ff00;stroke:#000000;stroke-width:2.0940001;stroke-linecap:square;stroke-linejoin:miter;stroke-miterlimit:4;stroke-dasharray:none"
         d="m 225.21867,152.23616 -13.41523,0 0,13.41524 -8.9435,0 0,-31.30222 22.35873,0 0,4.47174 4.47175,0 0,8.9435 -4.47175,0 0,4.47174 z m -13.41523,-13.41524 0,8.9435 8.94349,0 0,-8.9435 -8.94349,0 z" />
      <path
         inkscape:connector-curvature="0"
         id="path4312-7"
         style="font-style:normal;font-variant:normal;font-weight:500;font-stretch:normal;font-family:'Shaston 320';-inkscape-font-specification:'Shaston 320 Medium';fill:#00ff00;stroke:#000000;stroke-width:2.0940001;stroke-linecap:square;stroke-linejoin:miter;stroke-miterlimit:4;stroke-dasharray:none"
         d="m 256.52089,161.17965 0,-22.35873 -8.94349,0 0,22.35873 8.94349,0 z m 8.94349,-22.35873 0,22.35873 -4.47174,0 0,4.47175 -17.88699,0 0,-4.47175 -4.47174,0 0,-22.35873 4.47174,0 0,-4.47174 17.88699,0 0,4.47174 4.47174,0 z" />
      <path
         inkscape:connector-curvature="0"
         id="path4314-3"
         style="font-style:normal;font-variant:normal;font-weight:500;font-stretch:normal;font-family:'Shaston 320';-inkscape-font-specification:'Shaston 320 Medium';fill:#00ff00;stroke:#000000;stroke-width:2.0940001;stroke-linecap:square;stroke-linejoin:miter;stroke-miterlimit:4;stroke-dasharray:none"
         d="m 301.23834,165.6514 -26.83048,0 0,-31.30222 8.9435,0 0,26.83047 17.88698,0 0,4.47175 z" />
      <path
         inkscape:connector-curvature="0"
         id="path4316-84"
         style="font-style:normal;font-variant:normal;font-weight:500;font-stretch:normal;font-family:'Shaston 320';-inkscape-font-specification:'Shaston 320 Medium';fill:#00ff00;stroke:#000000;stroke-width:2.0940001;stroke-linecap:square;stroke-linejoin:miter;stroke-miterlimit:4;stroke-dasharray:none"
         d="m 332.54056,152.23616 -4.47174,0 0,13.41524 -8.94349,0 0,-13.41524 -4.47175,0 0,-4.47174 -4.47174,0 0,-13.41524 8.94349,0 0,13.41524 8.94349,0 0,-13.41524 8.94349,0 0,13.41524 -4.47175,0 0,4.47174 z" />
    </g>
    <g
       transform="translate(8.0409873,-8.7782609)"
       id="text3499-4-5"
       style="font-style:normal;font-weight:normal;font-size:35.77396393px;line-height:125%;font-family:Sans;letter-spacing:0px;word-spacing:0px;fill:#00ffff;fill-opacity:1;stroke:#000000;stroke-width:2.0940001;stroke-linecap:square;stroke-linejoin:miter;stroke-miterlimit:4;stroke-dasharray:none;stroke-opacity:1">
      <path
         inkscape:connector-curvature="0"
         id="path4304-7-6"
         style="font-style:normal;font-variant:normal;font-weight:500;font-stretch:normal;font-family:'Shaston 320';-inkscape-font-specification:'Shaston 320 Medium';fill:#00ffff;stroke:#000000;stroke-width:2.0940001;stroke-linecap:square;stroke-linejoin:miter;stroke-miterlimit:4;stroke-dasharray:none"
         d="m 117.89678,143.29267 0,4.47175 -4.47175,0 0,4.47174 -4.47174,0 0,4.47175 -4.47175,0 0,4.47174 17.88699,0 0,4.47175 -26.830477,0 0,-8.94349 4.471747,0 0,-4.47175 4.47174,0 0,-4.47174 4.47175,0 0,-4.47175 4.47174,0 0,-4.47175 -17.886977,0 0,-4.47174 26.830477,0 0,8.94349 -4.47175,0 z" />
      <path
         inkscape:connector-curvature="0"
         id="path4306-4-3"
         style="font-style:normal;font-variant:normal;font-weight:500;font-stretch:normal;font-family:'Shaston 320';-inkscape-font-specification:'Shaston 320 Medium';fill:#00ffff;stroke:#000000;stroke-width:2.0940001;stroke-linecap:square;stroke-linejoin:miter;stroke-miterlimit:4;stroke-dasharray:none"
         d="m 153.67074,152.23616 0,4.47175 4.47175,0 0,8.94349 -8.94349,0 0,-8.94349 -8.94349,0 0,8.94349 -8.94349,0 0,-8.94349 4.47174,0 0,-4.47175 4.47175,0 0,-4.47174 -4.47175,0 0,-4.47175 -4.47174,0 0,-8.94349 8.94349,0 0,8.94349 8.94349,0 0,-8.94349 8.94349,0 0,8.94349 -4.47175,0 0,4.47175 -4.47174,0 0,4.47174 4.47174,0 z" />
      <path
         inkscape:connector-curvature="0"
         id="path4308-0-9"
         style="font-style:normal;font-variant:normal;font-weight:500;font-stretch:normal;font-family:'Shaston 320';-inkscape-font-specification:'Shaston 320 Medium';fill:#00ffff;stroke:#000000;stroke-width:2.0940001;stroke-linecap:square;stroke-linejoin:miter;stroke-miterlimit:4;stroke-dasharray:none"
         d="m 193.91645,147.76442 0,4.47174 -26.83047,0 0,-4.47174 26.83047,0 z" />
      <path
         inkscape:connector-curvature="0"
         id="path4310-2-6"
         style="font-style:normal;font-variant:normal;font-weight:500;font-stretch:normal;font-family:'Shaston 320';-inkscape-font-specification:'Shaston 320 Medium';fill:#00ffff;stroke:#000000;stroke-width:2.0940001;stroke-linecap:square;stroke-linejoin:miter;stroke-miterlimit:4;stroke-dasharray:none"
         d="m 225.21867,152.23616 -13.41523,0 0,13.41524 -8.9435,0 0,-31.30222 22.35873,0 0,4.47174 4.47175,0 0,8.9435 -4.47175,0 0,4.47174 z m -13.41523,-13.41524 0,8.9435 8.94349,0 0,-8.9435 -8.94349,0 z" />
      <path
         inkscape:connector-curvature="0"
         id="path4312-7-7"
         style="font-style:normal;font-variant:normal;font-weight:500;font-stretch:normal;font-family:'Shaston 320';-inkscape-font-specification:'Shaston 320 Medium';fill:#00ffff;stroke:#000000;stroke-width:2.0940001;stroke-linecap:square;stroke-linejoin:miter;stroke-miterlimit:4;stroke-dasharray:none"
         d="m 256.52089,161.17965 0,-22.35873 -8.94349,0 0,22.35873 8.94349,0 z m 8.94349,-22.35873 0,22.35873 -4.47174,0 0,4.47175 -17.88699,0 0,-4.47175 -4.47174,0 0,-22.35873 4.47174,0 0,-4.47174 17.88699,0 0,4.47174 4.47174,0 z" />
      <path
         inkscape:connector-curvature="0"
         id="path4314-3-7"
         style="font-style:normal;font-variant:normal;font-weight:500;font-stretch:normal;font-family:'Shaston 320';-inkscape-font-specification:'Shaston 320 Medium';fill:#00ffff;stroke:#000000;stroke-width:2.0940001;stroke-linecap:square;stroke-linejoin:miter;stroke-miterlimit:4;stroke-dasharray:none"
         d="m 301.23834,165.6514 -26.83048,0 0,-31.30222 8.9435,0 0,26.83047 17.88698,0 0,4.47175 z" />
      <path
         inkscape:connector-curvature="0"
         id="path4316-84-2"
         style="font-style:normal;font-variant:normal;font-weight:500;font-stretch:normal;font-family:'Shaston 320';-inkscape-font-specification:'Shaston 320 Medium';fill:#00ffff;stroke:#000000;stroke-width:2.0940001;stroke-linecap:square;stroke-linejoin:miter;stroke-miterlimit:4;stroke-dasharray:none"
         d="m 332.54056,152.23616 -4.47174,0 0,13.41524 -8.94349,0 0,-13.41524 -4.47175,0 0,-4.47174 -4.47174,0 0,-13.41524 8.94349,0 0,13.41524 8.94349,0 0,-13.41524 8.94349,0 0,13.41524 -4.47175,0 0,4.47174 z" />
    </g>
  </g>
</svg>
